<svg xmlns="http://www.w3.org/2000/svg" shape-rendering="geometricPrecision" text-rendering="geometricPrecision" image-rendering="optimizeQuality" fill-rule="evenodd" clip-rule="evenodd" viewBox="0 0 512 179.388"><path fill-rule="nonzero" d="M89.692 0h332.616c24.663 0 47.083 10.1 63.333 26.35C501.902 42.611 512 65.046 512 89.692c0 24.639-10.106 47.068-26.367 63.327-16.259 16.261-38.688 26.369-63.325 26.369H89.692c-24.643 0-47.079-10.097-63.342-26.36C10.102 136.779 0 114.361 0 89.696c0-24.673 10.089-47.102 26.341-63.355C42.591 10.089 65.018 0 89.692 0zm75.998 116.656c-3.235 0-5.894-.482-7.972-1.449-2.078-.967-3.601-2.489-4.565-4.567-.967-2.077-1.451-4.735-1.451-7.972V62.804h14.061v37.472c0 .822.132 1.522.398 2.102.266.58.69 1.001 1.27 1.268.579.266 1.28.399 2.102.399h15.655v12.611H165.69zm47.148.435c-3.817 0-7.163-.374-10.039-1.123-2.874-.75-5.279-2.091-7.211-4.022-1.933-1.934-3.382-4.7-4.349-8.3-.966-3.599-1.449-8.251-1.449-13.952 0-5.703.483-10.352 1.449-13.953.967-3.599 2.416-6.365 4.349-8.298 1.932-1.934 4.337-3.275 7.211-4.023 2.876-.748 6.222-1.124 10.039-1.124 3.817 0 7.162.376 10.039 1.124 2.874.748 5.279 2.089 7.21 4.023 1.933 1.933 3.383 4.699 4.349 8.298.967 3.601 1.449 8.25 1.449 13.953 0 5.701-.482 10.353-1.449 13.952-.966 3.6-2.416 6.366-4.349 8.3-1.931 1.931-4.336 3.272-7.21 4.022-2.877.749-6.222 1.123-10.039 1.123zm0-12.611c1.836 0 3.335-.218 4.494-.653a5.287 5.287 0 002.718-2.247c.651-1.062 1.11-2.561 1.376-4.494.266-1.931.4-4.397.4-7.392 0-3.14-.134-5.677-.4-7.61-.266-1.934-.725-3.419-1.376-4.457a4.978 4.978 0 00-2.718-2.139c-1.159-.387-2.658-.58-4.494-.58-1.789 0-3.274.193-4.457.58-1.186.387-2.103 1.098-2.756 2.139-.651 1.038-1.111 2.523-1.375 4.457-.266 1.933-.4 4.47-.4 7.61 0 2.995.134 5.461.4 7.392.264 1.933.724 3.432 1.375 4.494a5.268 5.268 0 002.756 2.247c1.183.435 2.668.653 4.457.653zm45.336 12.539c-3.335 0-6.052-.713-8.154-2.138-2.102-1.426-3.733-3.383-4.892-5.872-1.161-2.487-1.97-5.374-2.428-8.662-.459-3.285-.688-6.788-.688-10.508 0-4.156.277-7.924.833-11.306.555-3.383 1.57-6.283 3.045-8.698 1.472-2.416 3.585-4.276 6.341-5.582 2.755-1.304 6.33-1.957 10.726-1.957 2.85 0 5.303.11 7.358.326 2.052.219 3.972.532 5.761.943 1.789.411 3.648.882 5.582 1.414v10.943c-1.064-.192-2.416-.361-4.06-.506a138.24 138.24 0 00-11.959-.508c-2.803 0-4.881.422-6.233 1.268-1.354.845-2.247 2.357-2.681 4.53-.435 2.174-.654 5.219-.654 9.133 0 2.995.121 5.424.364 7.284.242 1.86.64 3.298 1.195 4.312.556 1.015 1.268 1.715 2.137 2.102.872.387 1.91.58 3.119.58 1.786 0 3.382-.084 4.781-.253 1.402-.169 2.466-.327 3.19-.472v-6.957h-7.465V85.271a57.239 57.239 0 013.806-.361c1.473-.097 2.996-.181 4.566-.253 1.57-.073 3.008-.11 4.312-.11 1.739 0 3.274.013 4.602.037 1.33.024 2.55.06 3.661.108v31.964h-10.581l-1.886-3.551c-1.159.772-2.972 1.618-5.435 2.537-2.466.917-5.219 1.377-8.263 1.377zm35.043-.363V62.804h14.062v53.852h-14.062zm22.939 0V62.804h11.162l18.919 30.006V62.804h14.059v53.852h-11.161l-18.917-30.007v30.007h-14.062zM422.308 12.729H89.692c-21.159 0-40.401 8.662-54.35 22.613-13.951 13.952-22.613 33.195-22.613 54.354 0 21.147 8.673 40.381 22.622 54.331 13.962 13.962 33.212 22.632 54.341 22.632h332.616c21.123 0 40.366-8.681 54.324-22.641 13.96-13.958 22.639-33.201 22.639-54.326 0-21.131-8.671-40.381-22.631-54.341-13.949-13.949-33.183-22.622-54.332-22.622z"/></svg>