<svg xmlns="http://www.w3.org/2000/svg" shape-rendering="geometricPrecision" text-rendering="geometricPrecision" image-rendering="optimizeQuality" fill-rule="evenodd" clip-rule="evenodd" viewBox="0 0 512 168.114"><path fill-rule="nonzero" d="M84.055 0h343.89c23.112 0 44.124 9.465 59.352 24.694C502.536 39.933 512 60.958 512 84.055c0 23.088-9.473 44.106-24.711 59.345-15.241 15.241-36.26 24.714-59.344 24.714H84.055c-23.091 0-44.118-9.465-59.359-24.706C9.467 128.179 0 107.172 0 84.059c0-23.123 9.454-44.142 24.686-59.373C39.914 9.455 60.932 0 84.055 0zm57.184 109.734c-1.493 0-2.955-.045-4.381-.136a63.51 63.51 0 01-4.21-.408 84.47 84.47 0 01-3.974-.611 42.617 42.617 0 01-3.669-.815v-10.46c1.541.136 3.204.249 4.992.34 1.79.09 3.602.158 5.436.203 1.832.045 3.542.069 5.127.069 1.494 0 2.741-.114 3.736-.341.997-.227 1.743-.588 2.241-1.086.499-.499.748-1.177.748-2.039v-.815c0-.995-.35-1.743-1.054-2.241-.701-.497-1.528-.746-2.478-.746h-3.6c-5.253 0-9.238-1.155-11.956-3.466-2.716-2.308-4.073-6.179-4.073-11.613v-2.242c0-4.981 1.493-8.707 4.481-11.173 2.989-2.469 7.292-3.703 12.906-3.703 2.128 0 4.133.101 6.011.306a78.318 78.318 0 019.747 1.664v10.46c-2.081-.18-4.427-.328-7.029-.442a165.01 165.01 0 00-7.1-.17c-1.266 0-2.399.091-3.394.274-.997.18-1.768.543-2.311 1.086-.543.543-.815 1.335-.815 2.377v.679c0 1.131.363 1.992 1.087 2.581.725.589 1.834.883 3.328.883h4.483c3.17 0 5.808.6 7.914 1.8 2.106 1.2 3.691 2.831 4.755 4.89 1.064 2.061 1.595 4.404 1.595 7.031v2.242c0 4.3-.746 7.584-2.242 9.848-1.493 2.265-3.621 3.793-6.384 4.586-2.762.793-6.068 1.188-9.917 1.188zm25.574-.407V58.859h13.178v50.468h-13.178zm35.354.34c-3.125 0-5.67-.669-7.641-2.005-1.969-1.335-3.498-3.17-4.584-5.502-1.088-2.331-1.846-5.036-2.276-8.117-.43-3.079-.645-6.362-.645-9.848 0-3.896.26-7.426.781-10.596s1.471-5.888 2.853-8.152c1.381-2.264 3.361-4.006 5.943-5.23 2.582-1.223 5.932-1.835 10.052-1.835 2.672 0 4.97.103 6.895.306 1.924.205 3.724.499 5.4.884 1.676.385 3.419.827 5.231 1.326v10.255c-.997-.181-2.264-.339-3.804-.474a129.58 129.58 0 00-11.208-.477c-2.627 0-4.575.395-5.841 1.188-1.269.792-2.106 2.209-2.513 4.246-.408 2.037-.613 4.891-.613 8.559 0 2.807.114 5.083.341 6.826.227 1.743.6 3.091 1.121 4.041.521.951 1.187 1.607 2.002 1.97.817.363 1.79.543 2.922.543 1.675 0 3.17-.079 4.482-.237 1.313-.158 2.31-.306 2.989-.442v-6.52h-6.996V79.914a53.087 53.087 0 013.567-.338c1.38-.091 2.807-.17 4.278-.237a86.915 86.915 0 014.042-.104c1.629 0 3.068.013 4.313.035 1.246.022 2.389.057 3.431.101v29.956h-9.917l-1.767-3.328c-1.087.723-2.785 1.516-5.094 2.377-2.31.859-4.89 1.291-7.744 1.291zm32.842-.34V58.859h10.46l17.729 28.121V58.859h13.176v50.468h-10.46l-17.727-28.122v28.122h-13.178zm87.285.34c-2.762 0-5.377-.227-7.845-.681-2.469-.452-4.654-1.289-6.555-2.513-1.903-1.222-3.384-2.943-4.449-5.162-1.063-2.218-1.596-5.093-1.596-8.626V58.859h13.177v33.759c0 1.175.282 2.15.85 2.92.565.768 1.392 1.346 2.478 1.731 1.087.385 2.4.578 3.94.578 1.539 0 2.852-.193 3.941-.578 1.086-.385 1.913-.963 2.478-1.731.566-.77.849-1.745.849-2.92V58.859h13.178v33.826c0 3.533-.533 6.408-1.597 8.626-1.064 2.219-2.548 3.94-4.449 5.162-1.903 1.224-4.075 2.061-6.522 2.513-2.444.454-5.071.681-7.878.681zm28.087-.34V58.859h22.144c1.721 0 3.486.192 5.298.577 1.812.385 3.476 1.178 4.992 2.377 1.518 1.2 2.74 3.012 3.668 5.434.928 2.422 1.393 5.649 1.393 9.68 0 4.076-.452 7.347-1.358 9.815-.906 2.467-2.084 4.323-3.533 5.57-1.449 1.244-3.022 2.083-4.72 2.513-1.699.43-3.363.645-4.994.645-.859 0-1.753-.045-2.682-.136a35.07 35.07 0 01-2.717-.373 78.301 78.301 0 01-2.445-.476 67.514 67.514 0 00-1.868-.373v15.215h-13.178zm13.178-25.675h7.608c.904 0 1.618-.25 2.138-.748.521-.499.884-1.235 1.087-2.207.205-.975.306-2.185.306-3.634 0-1.405-.124-2.582-.373-3.533-.249-.95-.622-1.664-1.121-2.14-.498-.474-1.178-.711-2.037-.711h-7.608v12.973zm64.386-71.723H84.055c-19.83 0-37.862 8.118-50.934 21.192-13.075 13.075-21.192 31.108-21.192 50.938 0 19.816 8.129 37.841 21.202 50.914 13.085 13.084 31.127 21.212 50.924 21.212h343.89c19.791 0 37.822-8.134 50.909-21.22 13.083-13.085 21.216-31.115 21.216-50.91 0-19.803-8.125-37.843-21.208-50.926-13.072-13.072-31.098-21.2-50.917-21.2z"/></svg>