<svg xmlns="http://www.w3.org/2000/svg" version="1.1" xmlns:xlink="http://www.w3.org/1999/xlink" width="512" height="512" x="0" y="0" viewBox="0 0 682.667 682.667" style="enable-background:new 0 0 512 512" xml:space="preserve" class=""><g><defs><clipPath id="a" clipPathUnits="userSpaceOnUse"><path d="M0 512h512V0H0Z" fill="#000000" opacity="1" data-original="#000000" class=""></path></clipPath></defs><g clip-path="url(#a)" transform="matrix(1.33333 0 0 -1.33333 0 682.667)"><path d="m0 0 2.479 6.973L14.916-28C18.946-39.331 34.97-39.331 39-28l20.304 57.095-50.346 30-43.389-30L-24.084 0C-20.054-11.331-4.03-11.331 0 0" style="fill-opacity:1;fill-rule:nonzero;stroke:none" transform="translate(249.473 332.17)" fill="#b9f0ff" data-original="#b9f0ff" class=""></path><path d="m0 0 42.182-118.617c4.414-12.412 21.967-12.412 26.381 0L110.745 0Z" style="fill-opacity:1;fill-rule:nonzero;stroke:none" transform="translate(91.738 148.876)" fill="#b9f0ff" data-original="#b9f0ff" class=""></path><path d="M0 0c4.03-11.331 20.054-11.331 24.084 0l2.479 6.973L39-28c4.03-11.331 20.054-11.331 24.084 0L75.81 7.785 80-4c4.03-11.331 20.054-11.331 24.084 0l17.958 50.502H-16.537Z" style="fill-opacity:1;fill-rule:nonzero;stroke:none" transform="translate(205.39 43.998)" fill="#b9f0ff" data-original="#b9f0ff" class=""></path><path d="M0 0c4.029-11.331 20.054-11.331 24.083 0l20.305 57.095h-64.693Z" style="fill-opacity:1;fill-rule:nonzero;stroke:none" transform="translate(359.39 60.17)" fill="#b9f0ff" data-original="#b9f0ff" class=""></path><path d="m0 0 20.305 57.095h-64.693L-24.083 0C-20.054-11.331-4.029-11.331 0 0" style="fill-opacity:1;fill-rule:nonzero;stroke:none" transform="translate(391.473 282.17)" fill="#b9f0ff" data-original="#b9f0ff" class=""></path><path d="M0 0c23.171 0 44.922-8.946 61.247-25.192 26.282-26.155 68.795-26.153 95.046.263 26.124 26.287 26.004 68.94-.265 95.079-42.676 42.47-98.789 64.216-156.033 64.216l-86.347-41V-82.219c.855 20.808 9.298 41.303 25.098 57.025C-44.926-8.947-23.172 0 0 0" style="fill-opacity:1;fill-rule:nonzero;stroke:none" transform="translate(263.986 370.134)" fill="#7ce3ff" data-original="#7ce3ff" class=""></path><path d="M0 0c-26.243 26.407-68.755 26.424-95.044.266-33.786-33.621-88.716-33.62-122.502 0-15.87 15.791-24.145 35.986-25.091 56.389V-125.18l86.342-34.124c59 0 114.412 22.808 156.03 64.223C26.005-68.939 26.124-26.287 0 0" style="fill-opacity:1;fill-rule:nonzero;stroke:none" transform="translate(420.278 223.804)" fill="#7ce3ff" data-original="#7ce3ff" class=""></path><path d="M0 0c.818 77.845 29.586 155.452 86.347 216.585-123.649 0-220.84-99.817-220.843-219.994 0-58.867 23.018-114.192 64.814-155.782 41.62-41.415 97.034-64.224 156.031-64.224C29.74-162.447.973-85.091.007-7.456A85.436 85.436 0 0 0 0 0" style="fill-opacity:1;fill-rule:nonzero;stroke:none" transform="translate(177.634 287.915)" fill="#1cbbea" data-original="#1cbbea" class=""></path><path d="M0 0c0-12.911-13.143-23.377-29.354-23.377-16.213 0-29.355 10.466-29.355 23.377s13.142 23.376 29.355 23.376C-13.143 23.376 0 12.911 0 0" style="fill-opacity:1;fill-rule:nonzero;stroke:none" transform="translate(195.229 407.313)" fill="#ff8e9e" data-original="#ff8e9e"></path><path d="M0 0c0-12.911 13.143-23.377 29.354-23.377C45.567-23.377 58.71-12.911 58.71 0S45.567 23.376 29.354 23.376C13.143 23.376 0 12.911 0 0" style="fill-opacity:1;fill-rule:nonzero;stroke:none" transform="translate(317.633 407.313)" fill="#ff8e9e" data-original="#ff8e9e"></path><path d="m0 0-7.281.004-7.281 4.378a49.288 49.288 0 0 1-12.525 0l-7.28-4.378L-41.649 0c-10.672-5.372-17.745-14.747-17.745-25.419 0-10.675 7.071-15.157 17.745-17.003l7.282 2.997 7.28-4.18c3.697-.082 8.818-.083 12.525 0l7.281 4.18L0-42.422c10.674 1.846 17.745 6.328 17.745 17.003C17.745-14.747 10.672-5.372 0 0" style="fill-opacity:1;fill-rule:nonzero;stroke:none" transform="translate(277.255 442.116)" fill="#ffffff" data-original="#ffffff" class=""></path><path d="M0 0c-12.406 0-22.5-10.093-22.5-22.5v-10.366c0-12.407 10.094-22.5 22.5-22.5s22.5 10.093 22.5 22.5V-22.5C22.5-10.093 12.406 0 0 0" style="fill-opacity:1;fill-rule:nonzero;stroke:none" transform="translate(182.982 463.5)" fill="#ffffff" data-original="#ffffff" class=""></path><path d="M0 0c-12.406 0-22.5-10.093-22.5-22.5v-10.366c0-12.407 10.094-22.5 22.5-22.5s22.5 10.093 22.5 22.5V-22.5C22.5-10.093 12.406 0 0 0" style="fill-opacity:1;fill-rule:nonzero;stroke:none" transform="translate(329.88 463.5)" fill="#ffffff" data-original="#ffffff" class=""></path><path d="M0 0c-1.673-4.705-8.279-4.699-9.95 0l-5.564 15.644a225.738 225.738 0 0 1 26.205 14.42zm-74-20.171c-1.673-4.705-8.278-4.702-9.951 0-3.768 10.595-18.751 10.58-22.514-.001L-115-44.171c-1.673-4.705-8.279-4.701-9.951-.001l-9.957 28c-3.194 8.985-15.902 8.973-19.092.001-1.673-4.705-8.278-4.702-9.951 0l-6.327 17.794c34.307-8.85 69.835-9.47 102.998-2.899zm-3.888 312.29L-95 244c-1.672-4.703-8.279-4.701-9.951 0l-12.436 34.973c-2.36 6.638-11.778 6.625-14.133 0L-134 272c-1.672-4.703-8.279-4.701-9.951 0l-6.515 18.322c22.997 12.503 50.26 12.553 72.578 1.797m99.226-32.614L8 222c-1.673-4.705-8.279-4.699-9.95 0l-12.054 33.895c12.218-1.665 24.295-.325 35.342 3.61m27.853-93.097c-29.198 29.382-76.417 29.387-105.653.295-19.228-19.134-40.564-23.15-55.078-23.15-38.382 0-79.809 29.788-79.809 77.913 0 24.17 10.699 45.667 28.059 60.148l5.207-14.64c4.926-13.852 21.815-17.495 32.166-8.784l6.834-19.216c6.395-17.98 31.827-17.964 38.216.001l16.066 45.175a79.728 79.728 0 0 0 8.337-7.207c7.236-7.201 15.693-12.728 24.892-16.415l15.489-43.553c6.395-17.986 31.829-17.96 38.216 0l18.901 53.151c36.651 27.616 39.93 80.882 7.864 112.791a231.34 231.34 0 0 1-12.687 11.716 7.5 7.5 0 0 1-9.756-11.394c15.138-12.959 29.433-27.245 29.433-53.311 0-52.792-64.042-79.899-101.771-42.352-58.041 57.758-160.466 18.55-160.466-66.11 0-54.042 45.078-92.913 94.809-92.913 24.508 0 47.827 9.772 65.658 27.517 23.373 23.259 61.099 23.246 84.435-.236 23.502-23.648 22.804-61.545-.236-84.478C-1.885 31.35-55.418 9.317-112.423 9.317c-117.639 0-213.345 95.33-213.345 212.506.003 117.17 95.708 212.494 213.343 212.494 41.327 0 81.321-11.681 115.656-33.779a7.5 7.5 0 1 1 8.118 12.613c-36.761 23.66-79.562 36.166-123.774 36.166-61.48 0-119.05-23.845-162.107-67.142-42.712-42.95-66.235-99.898-66.236-160.352 0-52.883 17.944-103.001 50.939-143.419.05-.182.1-.365.164-.546l20.103-56.531a7.5 7.5 0 0 1 14.133 5.026l-9.128 25.669c17.145-15.29 36.255-27.736 56.751-37.104l-15.366-44.829c-2.051-5.769-10.198-5.765-12.248.001l-9.957 27.997a7.5 7.5 0 0 1-14.133-5.026l9.957-27.997c6.757-19.005 33.71-19.135 40.542.081l15.075 43.977c2.04-.772 4.094-1.511 6.157-2.225l-.263-.093 9.959-28.002c4.95-13.92 21.874-17.447 32.166-8.784l6.834-19.216c2.913-8.192 10.413-13.485 19.108-13.485 8.694 0 16.195 5.293 19.108 13.486l6.315 17.756c9.626-11.626 29.248-9.048 34.685 6.244l9.992 28.096a226.152 226.152 0 0 1 20.538 6.85l5.254-14.774c6.396-17.986 31.829-17.96 38.216-.001l18.001 50.619a231.291 231.291 0 0 1 16.763 15.131c28.787 28.642 29.75 76.047.294 105.684" style="fill-opacity:1;fill-rule:nonzero;stroke:none" transform="translate(376.406 62.683)" fill="#000000" data-original="#000000" class=""></path><path d="M0 0v-10.366a7.5 7.5 0 0 1 15 0V0A7.5 7.5 0 0 1 0 0" style="fill-opacity:1;fill-rule:nonzero;stroke:none" transform="translate(175.482 441)" fill="#000000" data-original="#000000" class=""></path><path d="M0 0v-10.366a7.5 7.5 0 0 1 15 0V0A7.5 7.5 0 0 1 0 0" style="fill-opacity:1;fill-rule:nonzero;stroke:none" transform="translate(322.38 441)" fill="#000000" data-original="#000000" class=""></path><path d="M0 0c0-4.555-1.974-7.675-10.245-9.335v26.167C-3.957 12.675 0 6.669 0 0m-37.332-10.666v32.904c4.065.611 8.355.626 12.525 0v-32.904a242.132 242.132 0 0 0-12.525 0M-62.139 0c0 6.669 3.957 12.675 10.245 16.832V-9.335C-60.165-7.675-62.139-4.555-62.139 0m-15 0c0-7.603 2.826-17.669 16.289-22.447 7.719-2.739 17.488-3.3 29.781-3.3s22.061.561 29.78 3.3C12.174-17.669 15-7.603 15 0c0 20.789-20.667 37.702-46.069 37.702-25.403 0-46.07-16.913-46.07-37.702" style="fill-opacity:1;fill-rule:nonzero;stroke:none" transform="translate(287.5 416.696)" fill="#000000" data-original="#000000" class=""></path><path d="M0 0a7.498 7.498 0 0 1 9.941-3.695 7.5 7.5 0 0 1 3.696 9.942A104.06 104.06 0 0 1-7.651 36.774a7.5 7.5 0 0 1-10.607-.026 7.498 7.498 0 0 1 .027-10.606A89.16 89.16 0 0 0 0 0" style="fill-opacity:1;fill-rule:nonzero;stroke:none" transform="translate(454.117 430.091)" fill="#000000" data-original="#000000" class=""></path><path d="M0 0a7.501 7.501 0 0 1-8.444-6.418c-2.797-20.528-12.243-38.489-26.262-52.089-6.852-6.743 2.935-18.276 11.296-9.939C-7.023-52.14 3.291-31.392 6.419-8.444A7.5 7.5 0 0 1 0 0" style="fill-opacity:1;fill-rule:nonzero;stroke:none" transform="translate(469.875 170.588)" fill="#000000" data-original="#000000" class=""></path><path d="M0 0a7.5 7.5 0 0 1 10.17 3.01c9.251 17.031 20.606 32.999 33.749 47.462a7.5 7.5 0 0 1-.506 10.594 7.5 7.5 0 0 1-10.595-.506C18.868 45.208 6.813 28.255-3.01 10.17A7.5 7.5 0 0 1 0 0" style="fill-opacity:1;fill-rule:nonzero;stroke:none" transform="translate(39.616 396.847)" fill="#000000" data-original="#000000" class=""></path></g></g></svg>